# xmcd
#
# Track frame offsets:
#	150
#	21527
#	45675
#
# Disc length: 838 seconds
#
# Revision: 3
# Processed by: cddbd v1.5.2PL0 Copyright (c) Steve Scherf et al.
# Submitted via: audiograbber 1.83.01
#
DISCID=22034403
DTITLE=Beverly Knight - Maxi
DYEAR=2000
DGENRE=R&B
TTITLE0=Greatest Day ( Classic Mix Version )
TTITLE1=Weekend Thing
TTITLE2=Greatest Day (  Ruffland Mix Version )
EXTD=YEAR: 2000 ID3G: 14
EXTT0=
EXTT1=
EXTT2=
PLAYORDER=
